HIERARCHY
ROOT Hips
{
 OFFSET 0.000000 0.000000 0.000000
 CHANNELS 6 Xposition Yposition Zposition Yrotation Xrotation Zrotation
 JOINT Chest
 {
  OFFSET 0.000000 9.585900 0.002600
  CHANNELS 3 Yrotation Xrotation Zrotation
  JOINT Chest2
  {
   OFFSET 0.000000 9.601200 -0.005300
   CHANNELS 3 Yrotation Xrotation Zrotation
   JOINT Chest3
   {
    OFFSET 0.000000 9.561800 0.000000
    CHANNELS 3 Yrotation Xrotation Zrotation
    JOINT Chest4
    {
     OFFSET 0.000000 9.552100 0.000000
     CHANNELS 3 Yrotation Xrotation Zrotation
     JOINT Neck
     {
      OFFSET 0.000000 14.453000 0.000000
      CHANNELS 3 Yrotation Xrotation Zrotation
      JOINT Head
      {
       OFFSET 0.000000 8.936500 -0.011300
       CHANNELS 3 Yrotation Xrotation Zrotation
       End Site
       {
        OFFSET 0.000000 17.073600 -0.006000
       }
      }
     }
     JOINT RightCollar
     {
      OFFSET -2.921100 9.558500 0.000000
      CHANNELS 3 Yrotation Xrotation Zrotation
      JOINT RightShoulder
      {
       OFFSET -13.519700 0.000000 0.000000
       CHANNELS 3 Yrotation Xrotation Zrotation
       JOINT RightElbow
       {
        OFFSET 0.000000 -29.696600 0.000000
        CHANNELS 3 Yrotation Xrotation Zrotation
        JOINT RightWrist
        {
         OFFSET 0.000000 -24.004700 0.000000
         CHANNELS 3 Yrotation Xrotation Zrotation
         End Site
         {
          OFFSET 0.000000 -17.728500 0.000000
         }
        }
       }
      }
     }
     JOINT LeftCollar
     {
      OFFSET 2.921100 9.558500 0.000000
      CHANNELS 3 Yrotation Xrotation Zrotation
      JOINT LeftShoulder
      {
       OFFSET 13.519700 0.000000 0.000000
       CHANNELS 3 Yrotation Xrotation Zrotation
       JOINT LeftElbow
       {
        OFFSET 0.000000 -29.696600 0.000000
        CHANNELS 3 Yrotation Xrotation Zrotation
        JOINT LeftWrist
        {
         OFFSET 0.000000 -24.004700 0.000000
         CHANNELS 3 Yrotation Xrotation Zrotation
         End Site
         {
          OFFSET 0.000000 -17.728500 0.000000
         }
        }
       }
      }
     }
    }
   }
  }
 }
 JOINT RightHip
 {
  OFFSET -7.771700 -0.012900 -0.001300
  CHANNELS 3 Yrotation Xrotation Zrotation
  JOINT RightKnee
  {
   OFFSET 0.000000 -40.869800 0.001200
   CHANNELS 3 Yrotation Xrotation Zrotation
   JOINT RightAnkle
   {
    OFFSET 0.000000 -39.717900 0.002100
    CHANNELS 3 Yrotation Xrotation Zrotation
    JOINT RightToe
    {
     OFFSET 0.000000 -4.965400 11.033500
     CHANNELS 3 Yrotation Xrotation Zrotation
     End Site
     {
      OFFSET 0.000000 -1.423100 5.872300
     }
    }
   }
  }
 }
 JOINT LeftHip
 {
  OFFSET 7.771700 -0.012900 -0.001300
  CHANNELS 3 Yrotation Xrotation Zrotation
  JOINT LeftKnee
  {
   OFFSET 0.000000 -40.869800 0.001200
   CHANNELS 3 Yrotation Xrotation Zrotation
   JOINT LeftAnkle
   {
    OFFSET 0.000000 -39.717900 0.002100
    CHANNELS 3 Yrotation Xrotation Zrotation
    JOINT LeftToe
    {
     OFFSET 0.000000 -4.965400 11.033500
     CHANNELS 3 Yrotation Xrotation Zrotation
     End Site
     {
      OFFSET 0.000000 -1.423100 5.872300
     }
    }
   }
  }
 }
}
MOTION
Frames: 5
Frame Time: 0.008333
15.510485 50.067284 54.305560 172.404353 -33.662306 -6.869378 6.445343 19.872395 7.039863 0.736036 2.702172 0.666238 1.208504 4.388012 1.107170 5.363257 17.034504 4.980677 -0.932311 16.846442 0.541921 -1.940773 -4.578721 1.345853 -0.854309 -5.475288 -6.624026 7.068203 -10.876261 -8.825580 -156.625633 -60.594264 161.329698 3.364962 -4.848931 72.611376 -12.042555 -2.186091 0.578765 8.645346 -13.545578 2.028749 122.993773 -53.480995 -145.458016 18.237377 17.642198 -77.569504 1.064864 -47.294931 10.835536 -112.871297 84.923338 -101.323691 -1.851543 -11.937943 -2.693381 -0.304427 0.930652 -0.135861 -8.276751 -50.833323 17.058714 -152.378080 80.596720 -159.959242 0.343014 -16.794989 8.074394 -0.317617 -0.771532 -0.150942
15.512474 50.070649 54.308749 172.399077 -33.658505 -6.868298 6.457154 19.886208 7.048522 0.737193 2.717865 0.668260 1.215806 4.382453 1.100530 5.381446 17.093841 4.980314 -0.962933 16.837094 0.577225 -1.988507 -4.539711 1.401886 -0.875782 -5.555366 -6.618738 7.150329 -11.066032 -8.623077 -155.688396 -60.167177 160.525012 3.217557 -4.786553 72.549059 -12.066383 -2.236810 0.563788 8.619566 -13.688716 1.899391 122.523252 -53.007517 -145.377265 18.529565 17.715898 -77.378033 1.042753 -47.298528 10.842015 -112.897648 84.934553 -101.365325 -1.792140 -11.920536 -2.707819 -0.278152 0.920753 -0.131398 -8.275077 -50.835472 17.061507 -152.373587 80.601859 -159.952641 0.350664 -16.794159 8.068178 -0.313971 -0.774296 -0.145997
15.512490 50.074492 54.311505 172.390421 -33.651689 -6.852366 6.461342 19.886616 7.038574 0.735690 2.764582 0.677609 1.224401 4.433629 1.107623 5.376789 17.084774 4.963973 -0.986409 16.845031 0.597908 -2.031964 -4.495837 1.446982 -0.877318 -5.614054 -6.640392 7.238332 -11.271249 -8.415858 -154.795083 -59.737126 159.762607 3.098228 -4.731213 72.517196 -12.083817 -2.240015 0.511581 8.607593 -13.871880 1.778804 122.046614 -52.529253 -145.302201 18.762863 17.823741 -77.250698 1.049576 -47.303960 10.809204 -112.983568 84.956161 -101.458297 -1.706775 -11.910420 -2.723601 -0.278135 0.917720 -0.132245 -8.254645 -50.841566 17.045949 -152.364364 80.608261 -159.941710 0.340312 -16.785336 8.066308 -0.311373 -0.779534 -0.142498
15.512744 50.078478 54.314876 172.386250 -33.637816 -6.839379 6.460790 19.912853 7.034732 0.734592 2.750548 0.673665 1.225273 4.440386 1.107815 5.370946 17.147272 4.970928 -1.004397 16.872801 0.612090 -2.069552 -4.443519 1.478681 -0.871584 -5.618882 -6.694538 7.326689 -11.524174 -8.196249 -153.934987 -59.298483 159.039141 3.006147 -4.674053 72.518954 -12.086209 -2.240913 0.480179 8.611644 -14.033114 1.626147 121.573244 -52.047590 -145.245912 18.940492 17.945708 -77.180421 1.061813 -47.315378 10.786896 -112.946115 84.964052 -101.414925 -1.710750 -11.912976 -2.723266 -0.288148 0.922397 -0.137310 -8.241077 -50.854491 17.035482 -152.364672 80.617180 -159.942685 0.327328 -16.773038 8.067103 -0.308341 -0.785240 -0.140170
15.508633 50.082460 54.316962 172.362270 -33.626919 -6.786385 6.454839 19.948967 6.997864 0.742049 2.733595 0.668637 1.226036 4.447677 1.108082 5.361384 17.221602 4.980720 -1.020977 16.900351 0.619144 -2.102197 -4.391807 1.496812 -0.849861 -5.678919 -6.743967 7.404308 -11.726325 -7.996367 -153.086922 -58.844495 158.347610 2.943338 -4.611997 72.549701 -12.088278 -2.251835 0.462924 8.636660 -14.173420 1.458521 121.106815 -51.558048 -145.213430 19.069060 18.058682 -77.163117 1.122695 -47.328651 10.736660 -112.893128 84.953647 -101.341747 -1.851396 -11.940608 -2.689319 -0.338422 0.936779 -0.161635 -8.166121 -50.864033 16.985142 -152.317283 80.628697 -159.906524 0.296174 -16.761159 8.072138 -0.292802 -0.791514 -0.125034
